EMG
version=1
nRows=31
nColumns=17
inDegrees=no
endheader
time	EMG01_right_gast_med	EMG02_right_glut_max	EMG03_left_gast_med	EMG04_left_glut_max	EMG05_right_glut_med	EMG06_right_bic_fem	EMG07_right_rect_fem	EMG08_right_vast_lat	EMG09_right_vast_med	EMG10_right_tens_fasc_lat	EMG11_left_glut_med	EMG12_left_bic_fem	EMG13_left_rect_fem	EMG14_left_vast_lat	EMG15_left_vast_med	EMG16_left_tens_fasc_lat
      1.52000000	   -275.22335815	     37.34191513	    -13.11418152	    182.39396667	    -37.71453857	     11.79321480	     -1.52822423	      2.43459630	    -61.56149673	      8.46669865	     -9.26513672	     -1.77930164	     -4.53009415	     11.19304180	    -45.96620941	     65.44213867
      1.53000000	      8.62037277	     54.45912933	     -6.41872597	    193.08088684	     -5.74303961	    -42.24473190	     -1.96071661	     -7.65998745	    -32.83967209	     -1.29147983	      7.37558746	     18.71987343	     -5.38747215	    -10.94172478	    -45.52270126	    120.97072601
      1.54000000	     42.04748535	     62.05881500	     -6.29155493	    163.69641113	    -13.67360687	     -2.70278502	      4.52038574	     -4.35339308	    -14.58483696	    -23.00705719	    -14.98686695	      4.50741768	     -0.09841312	      5.55959463	    -37.58757019	    116.52834320
      1.55000000	   -101.73531342	     33.47987366	     -2.72729158	     77.97482300	    -33.65216064	    -11.06643486	      0.55422735	     -6.21283007	      0.56894326	      1.36316156	     -8.39243507	    -21.04373550	    -11.09847069	      5.71879864	    -23.21352959	     51.48535156
      1.56000000	     93.51399231	     13.45637894	      9.41989136	     87.09104156	      8.63716793	    -10.01675415	     -0.84415770	     -4.59562874	      7.16543198	     15.95366573	     10.86771584	    -20.02631187	     -0.32448244	      9.66310787	    -12.25371552	     49.73906326
      1.57000000	    -21.37499619	    -14.10479450	      1.31046474	   -109.65525818	     19.83348846	    -10.17781258	     10.16615105	     -1.80518007	     -8.97372818	     14.28856087	      6.45823431	     86.35374451	    -13.28053474	     10.21437168	    -19.60749054	    128.19277954
      1.58000000	    -24.94353104	    -35.75963974	      5.82792664	   -261.66567993	     21.53146172	     -4.55744457	     -0.91743565	     -0.48590750	    -33.94482040	    -10.57503223	      3.82967019	      6.94954395	    -10.78405476	      7.66452646	     -5.33372116	    176.65187073
      1.59000000	     18.09190369	    -72.03739166	      3.74027085	   -358.60311890	      8.88057709	      1.38578451	     -6.70202112	     14.65712452	    -31.30511093	      7.34263659	      4.91257524	      1.18957126	     -9.77671909	      2.12090015	     -2.41498160	     28.63543129
      1.60000000	    -13.52325153	    -90.48587036	     -1.08441722	   -252.87001038	    -32.32171631	     -7.50581169	     -6.62001896	     21.70172691	    -15.92242908	    -27.96623039	     -6.10813236	     27.31357193	     -7.63155985	      4.85902452	      1.31475949	     17.19102097
      1.61000000	    -71.68962860	    -82.06481934	     -0.68688983	   -124.55597687	    -83.32984161	     -1.59446073	     -5.88354969	      4.15464640	      5.47083712	    -28.65986252	    -18.43422318	      9.33789825	     -5.88065577	      3.48109603	      0.04890705	     32.58225250
      1.62000000	    -45.14584732	    -62.44996643	      1.01808167	    -73.94467163	    -91.14684296	     17.55405426	     -3.83587503	      2.10087633	      6.93378878	     -3.37515712	     60.80518341	    -60.08860397	    -11.19653034	     -8.34477234	     12.95951271	     50.95024109
      1.63000000	    -22.20251274	    -24.58955383	      3.92472982	    -20.15840149	     30.39116287	    -27.29195976	     -4.02976179	     -1.77405536	     17.36699677	     -2.46662545	      9.24545479	     -9.82484055	     -8.97981262	     -6.11841679	      5.69437122	     61.50926208
      1.64000000	     63.46719360	     -3.75289249	     -5.24370861	     18.85220146	     30.38194656	     28.05533791	     -7.79668427	     -3.72962809	     18.63185310	     11.27670860	     -0.97436392	     29.57287788	    -11.22334480	     16.62886047	      5.84536839	     45.79460526
      1.65000000	   -142.09684753	     10.64738178	      1.11487114	     53.39936829	     -9.90119743	      6.15593195	     -5.09285259	     -2.83898520	     15.97001362	      8.28287792	    -59.06807709	    -10.14668751	     -8.12117577	    -17.68135452	     16.68062973	     74.62460327
      1.66000000	   -205.78096008	     23.06105804	     -8.81114483	     72.03890228	    -27.89640617	    -11.29430866	      3.84377861	     -4.68372869	     -0.15588059	     -1.61480308	     74.81558990	    -27.78924751	     -3.60137701	      7.02652407	     -8.94907570	    118.57402039
      1.67000000	    186.13438416	     24.32718468	     -4.14159632	     94.55225372	    -33.86997223	    -14.44606018	      0.20158163	     -4.15366697	    -24.29543495	      3.92182517	     -7.99363613	    -12.82017708	     -9.89501762	    -14.92396832	     20.38667297	    -14.76637363
      1.68000000	    481.81887817	     17.92578506	    -10.86613941	     78.70149994	     34.30363083	     -9.95958805	      0.27435076	    -15.31456089	      2.95875049	    -16.32170105	     19.26312256	     -8.55673885	     -6.00420237	     -8.15740871	     -2.92047215	    -46.44728088
      1.69000000	   -245.32162476	     16.85595322	     10.69786835	     37.82271194	    142.05273438	      8.91253757	    -17.85756683	    -33.44266510	      6.08265209	     28.00229454	    -18.17854881	      7.36475897	     -3.71462846	    -55.91877747	     36.31422806	    -73.75082397
      1.70000000	    142.12937927	      5.02712202	     -1.44302595	     34.49872208	    107.32717133	     12.10561752	     -1.81282413	    -18.04055786	     27.56642532	     23.39327240	     -0.81522900	    -22.97372437	     -6.84661818	    -61.52439499	     36.14581680	    -14.36941814
      1.71000000	    723.90930176	     -1.86875582	     -1.34677184	    -59.09772110	     39.76540756	    -43.95101166	      2.22157383	     -6.97985697	      6.84158134	     28.27631950	      1.90326762	    -40.77655792	     -4.53072929	     24.06151962	     20.07427406	    112.78640747
      1.72000000	   -390.63403320	      3.89416456	    -12.55039215	    -52.48331070	     28.14066887	     11.41345215	      1.22284389	    -14.61700916	    -16.53055191	     42.79148865	    -13.57118130	      4.08105040	    -36.01508331	    -84.42100525	     77.59871674	    201.73742676
      1.73000000	   -114.59040070	     13.53773689	     17.24734497	    -80.87854767	     54.58558273	      7.00565767	     -1.05178690	    -15.75988197	    -48.54679108	     31.77717972	     14.73413467	    -42.83441162	    -33.64280701	     -3.60946822	     41.22218323	    113.60440063
      1.74000000	      4.98403549	     18.35807419	      4.71818542	    -88.28324890	     12.24624348	    -10.35633659	     -1.52399802	    -13.31068802	    -60.91282654	    -35.46752167	    -20.77998924	    -50.82672501	    -28.33415985	     30.74237633	     31.59909058	   -132.46699524
      1.75000000	    -89.81603241	     10.21768665	    -11.49348068	    -59.29613495	    -12.28184223	     -9.59971619	     -4.55381584	    -21.07708740	    -42.46871185	    -22.50776291	     -7.28212023	     74.89835358	    -26.49324608	     64.66503906	    125.10822296	   -219.86634827
      1.76000000	     38.86300659	     12.34276104	      9.04208946	      8.67879581	    -57.58051300	    -16.23189545	     -7.20097971	    -11.13142872	    -24.52843094	    -35.68255234	      5.40525484	     40.13550949	    -48.71270752	     53.55502701	     68.59705353	   -223.12284851
      1.77000000	     21.10999107	     25.16714287	     -6.36907768	     68.78356934	    -32.97020721	    -10.66158009	     -2.96111441	     -9.23080444	    -18.27480698	    -71.13114929	    -21.91622925	     -4.70937538	     11.34188747	     -6.23403692	     -2.13705158	   -169.78080750
      1.78000000	     13.45995617	     27.79746628	     -7.14643526	      3.81143212	     18.80528641	      3.69908524	     -5.61260700	     -5.18841362	     -9.52851105	    -11.01599216	    -55.98441696	    -21.33661270	    -26.98385620	     72.25617981	    -66.12648010	    -69.36851501
      1.79000000	      0.58954597	      8.34358883	     30.59017563	     93.59893799	     44.66038132	     13.61124420	     -3.58621502	      3.68837166	    -14.74746227	     27.11912727	    -20.69959068	    104.20532227	    -12.95446968	     15.71189785	    -69.21411133	     66.41138458
      1.80000000	      5.43481016	      3.45144963	     35.95394516	    143.41966248	    428.57180786	    -30.64603424	      5.45310831	     10.87870026	    -22.17405891	   -143.82499695	    166.52487183	     37.42664337	     18.15258408	     25.66343117	    -15.71268463	    131.76504517
      1.81000000	     -4.18955231	      0.25659639	    -62.02863312	    200.78819275	    395.63189697	    -33.73022461	     -6.66760731	      5.86302042	    -21.61738205	     13.57254791	      9.08729267	    -59.78468323	    -39.72933197	     -3.57407856	    -18.85170364	    -23.96747208
      1.82000000	     -7.64875174	      5.24744225	    -68.71273041	    175.23901367	   -145.18200684	     49.58983994	      3.22517419	      5.26666641	    -12.01664162	     27.85664558	      0.91851264	     -3.43674564	     47.85350037	   -117.24334717	   -135.87734985	   -176.46119690
